<?xml version="1.0" encoding="UTF-8"?>
<svg id="Capa_1" xmlns="http://www.w3.org/2000/svg" version="1.1" viewBox="0 0 2273 2500">
  <!-- Generator: Adobe Illustrator 29.0.0, SVG Export Plug-In . SVG Version: 2.1.0 Build 186)  -->
  <defs>
    <style>
      .st0 {
        fill: #fff;
      }
    </style>
  </defs>
  <path class="st0" d="M1750.2,874c-5.6-3.5-27.8-17.2-53.8-32.6-2.8-1.8-7.3-4.3-10.1-5.6-2.8-1.5-11.9-6.6-20.2-11.4-8.3-4.8-30.5-16.4-49.2-25.5-18.7-9.3-37.4-18.7-41.1-20.7h0c-13.1-6.8-39.6-6.3-53.5,1-2.8,1.5-10.1,4.8-16.4,7.1-6.3,2.5-15.1,6.1-19.4,7.8-4.5,2-12.1,5-16.4,6.8-11.6,4.8-23.2,9.8-42.4,18.7-9.1,4.3-18.9,8.6-22.2,9.6-4.5,1.3-5.3,2.5-3,5,4.3,5,28.5,7.3,42.4,4,29-7.3,40.6-10.4,55-13.9,30.8-8.1,34.6-6.8,69.7,19.2,17.2,12.6,31.6,23.7,32.3,24.7,1.3,1.5,16.2,13.6,52.8,42.9,7.8,6.1,16.4,13.1,18.9,15.7,5.6,5,14.9,9.6,45.7,22.2,24.7,10.1,44.7,18.9,58.1,25.7,10.9,5.3,21.2,16.2,21.5,22,0,2,1.5,9.3,3.5,16.4,8.6,30.3,24.2,150.7,24.2,184.8s-2.3,19.4-5.3,27.8c-2.8,8.1-5.8,17.2-6.6,19.7-2.5,8.3-44.4,89.9-56.3,109.6-6.3,10.9-16.2,23-23.5,29-28.5,23.7-27,21-27,53.5s1,29,2,29c3.3,0,53-69.9,59.3-83.3,1-2,4-7.3,6.8-11.4,2.8-4.3,6.1-9.8,7.6-12.6,1.5-2.8,6.1-10.9,10.4-17.7,4-7.1,9.3-16.2,11.4-20.2,2-4.3,7.8-14.9,12.6-24,29-52.5,33.1-62.9,36.6-93.4,6.6-56,2.8-174.2-6.8-220.6-2-9.6-3.5-20.4-3.5-24.5,0-13.4-7.6-27-19.9-35.8-17.2-12.6-59.3-40.9-63.4-42.9-2-1-6.8-3.8-10.6-6.3Z"/>
  <path class="st0" d="M1146.1,419.3c47.5.5,87.3-.3,89.1-1.3,2.3-1.3,3-13.1,3-40.6s-.3-39.1-5-41.7c-3-1.8-22.5-2.3-52.3-2l-47.5.8-.8,9.1c-.5,5.3.5,10.1,2.8,11.9,2,1.8,17.2,3,38.6,3.5l35.1.8v35.3l-69.7.8c-62.6.5-70.2.3-73.2-3.5-4.5-5.6-5-87.6-.8-91.9,2-2,25.2-2.8,77-2.8s76.2-.5,78.8-1.3c5.8-1.8,6.1-19.9.3-22.2h0c-4.3-1.8-144.1-1.5-156.3.3-11.4,1.8-22.7,11.6-26,23-1.8,6.1-3,26.5-3,52.5.3,34.8,1,44.2,4.5,51.5,8.6,17.2,9.6,17.2,105.3,17.9Z"/>
  <path class="st0" d="M1627.5,1183c-45.2-60.1-91.4-114.9-132.3-156h0c-18.2-18.7-26-24.7-30.8-24.7-7.6,0-7.8,1-3,18.4,1.8,7.3,5.3,22.2,7.8,33.3,2.3,11.1,5.8,27,7.6,35.3,2,8.3,5.3,24.2,7.6,35.3,2.3,11.1,5.8,27.5,7.6,36.6,2,9.1,4,19.4,4.8,23.2,1,3.8,11.9,17.4,25.2,31.6,51.2,54,78.8,90.4,88.4,116.6,4.5,13.1,5,22,6.1,112.6,1,99-2.8,179.7-10.1,207-2.8,11.1-14.6,23.7-43.4,46.7-9.6,7.6-19.2,15.7-21.5,17.7-2.3,2.3-9.1,8.1-15.4,13.1-28.5,23.2-139.9,118.7-143.9,123.2-.8.8-12.6,11.6-26.5,23.7-40.4,35.8-77.8,74.7-84.1,88.1-3.3,6.6-6.8,11.9-8.1,11.9-2.3,0-7.1-12.6-14.1-37.9-6.1-21.5-6.1-60.3,0-84.6,2.3-9.8,6.1-24.5,8.1-32.8,8.8-34.8,22.5-82.8,30.3-106,2-5.8,3.5-13.4,3.5-16.9s1.3-7.6,2.5-8.3c1.5-.8,2.5-3.3,2.5-5.3s-2.3-1.3-6.3,3.5c-3.5,4.3-6.3,9.1-6.3,11.1s-1,4.5-2.3,6.1c-1.3,1.3-13.4,28.3-26.8,60.3-13.4,31.8-26,61.3-27.8,65.6-3,7.1-6.6,15.9-15.7,40.4-2.3,5.6-5.3,14.1-7.1,18.9-2,4.8-4.8,14.4-6.6,21.5-3,12.9-2,17.9,7.3,41.7,1.3,3.5,4.5,11.4,6.8,17.7,4.3,11.1,8.1,19.9,14.9,35.8,2,4.5,6.1,14.9,9.3,22.7,7.3,18.4,12.1,18.9,20.7,2.5,3.3-6.6,8.6-15.9,11.4-20.7,2.8-4.8,7.6-13.4,10.6-18.9,13.1-24,25-38.1,48.7-58.8,13.9-12.1,27.8-24.2,31.1-27,3-3,11.1-9.8,17.7-15.1,6.6-5.6,16.2-13.6,21-17.9,21.2-18.2,73.2-61.1,83.6-68.9,6.3-4.8,12.6-9.8,13.9-11.4,1.5-1.5,13.9-11.9,27.8-23,13.9-11.1,26.8-21.7,28.5-23.2,1.8-1.8,10.4-8.6,18.9-15.1s16.2-12.6,16.9-13.4,5.3-4.3,10.1-7.6c26.5-18.2,42.9-37.1,42.9-49.5s1.5-10.1,3.5-17.2c7.1-25.2,15.9-73.2,22.7-121.4,10.4-75.2,13.1-166.9,7.1-237.3-4-46.2-6.3-51.2-45.4-103.3Z"/>
  <path class="st0" d="M1238.5,804c11.9,0,15.7,1.3,21,6.1,8.3,7.8,16.7,24,16.7,32.1s-9.3,18.4-26.5,41.4c-29,38.4-30.5,42.7-23,64.4,2,5.6,5.6,16.9,7.8,25.2,2.5,8.3,5.8,19.2,7.6,24,1.8,4.8,5,15.7,7.6,24,8.3,29.3,17.7,46.7,24.7,46.7s1.3-16.4-2.8-32.8c-1.5-6.3-4.5-20.4-6.8-31.6s-5.8-27-7.8-35.3c-2-8.3-3.8-21-4-28,0-11.6,1.3-14.9,14.6-35.3,8.3-12.4,15.4-23.7,16.2-25,.8-1.5,4.5-7.6,8.8-13.9,6.6-10.1,7.3-13.1,6.8-29.3-.3-9.6-2-22.7-4.3-28.5-2-6.1-3.8-13.6-3.8-16.7,0-4.5-3.5-7.6-17.9-14.9h0q-19.7-10.1-41.4-5c-8.3,1.8-24.7,5-36.6,7.3-20.2,3.8-30.5,5.8-77.5,15.4-37.1,7.3-46.7,11.4-54.3,22.5-12.6,18.7-11.6,26.5,3.8,26.5s14.4,1.8,23.5,4l16.2,4.3,19.7-8.3c10.6-4.5,24-9.8,29.5-11.9,5.6-2,13.6-5.3,17.7-7.1,4.3-1.8,12.1-4.8,17.7-7.1,5.6-2,15.1-5.8,21.2-8.3,6.6-2.8,17.4-4.8,25.7-4.8Z"/>
  <path class="st0" d="M1582.1,432.7c27.5,4.8,82.3,9.1,118.4,9.6,39.1.8,42.4.5,47.7-4.3,11.6-10.4,12.6-16.2,12.6-63.6s-.5-45.7-5.8-55c-9.3-16.7-18.4-19.9-67.9-24.7h0c-55.5-5.3-99.2-7.1-110.6-4.3-4.8,1.3-11.4,5-14.4,8.8-5.6,6.3-5.8,8.1-5.8,60.6v54l8.8,8.8c5,5,12.4,9.3,16.9,10.1ZM1579.1,361.8c0-22,1.3-41.1,2.5-43.9,2.5-4.3,5.6-4.8,31.1-4.8s42.4,1.8,59.8,3.8c17.4,2,36.4,3.8,42.2,3.8,8.3,0,11.6,1.3,15.7,6.6,4.8,6.1,5.3,10.1,5.3,42.9s-2.3,48.7-9.8,49.2c-10.6,1-43.7-.8-87.3-4.5-63.4-5.3-59.3-2-59.3-53Z"/>
  <path class="st0" d="M1402.4,426.4c91.6,2.5,91.1,2.5,86.8-12.9l-2.5-8.3-26.3-.5c-65.1-1.5-129.8-5.8-131.8-9.1-3.5-5.6-2.3-31.3,1.8-34.6,2.8-2.3,15.9-2.5,61.1-.3,31.8,1.5,61.6,3.5,66.6,4.3,11.1,1.5,15.7-2.8,14.4-14.6l-.8-8.3-21.5-2c-11.9-1-44.2-2.8-71.9-3.8l-50.5-1.8v-35.3l30.3.5c16.7.3,51.8,1.8,78,3.5,45.2,2.8,48,2.5,51.2-1.8,5.3-7.1,4-15.9-2.3-18.4-3.3-1.3-28.5-3.5-56.3-5h0c-70.2-3.8-127.5-3.8-127.5.3-.8,35.1.3,139.1,1.3,140.9,2.5,4,15.4,5,99.7,7.3Z"/>
  <path class="st0" d="M1825.2,330c9.8,1.8,28,3.8,40.4,4.8,12.6,1,24.2,2.8,26,4.3,2.3,1.8,3,17.2,3,61.1,0,64.9.3,65.4,15.7,63.9l8.3-.8.8-58.1c.3-32.8,1.8-59.1,3-60.3,3.3-3.3,26.3-2.3,54,2.5,12.4,2,24,3.3,25.7,2.5,4.5-1.8,4.5-17.7.5-21.2-1.8-1.3-14.1-3.8-27.3-5.3-13.1-1.8-35.8-4.5-50.5-6.6-14.6-2.3-31.6-3.8-37.9-3.8s-22.2-1.8-35.3-3.8h0c-42.2-6.6-46.7-5.3-44.9,10.6.8,6.6,1.8,7.3,18.4,10.1Z"/>
  <path class="st0" d="M520.8,1214.3c-10.9.3-37.4,18.9-37.4,26.5s6.3,10.1,13.9,18.9c7.6,9.1,13.9,17.2,13.9,18.2s1.5,2,3.3,2c3.8,0,11.9-37.9,11.9-55s-.8-10.6-5.6-10.6Z"/>
  <path class="st0" d="M697,1497.5c-1-1.8-5.8-1.3-13.6.8-15.9,4.5-35.6,9.3-43.9,10.6-5.6,1-7.3,0-10.6-6.3-2.3-4.3-4-10.6-4-14.1s-1.8-13.9-3.8-23.2c-2.3-9.1-3.8-22.5-3.3-29.5.8-12.1,1.3-13.1,8.3-15.4,4.3-1,11.6-3.5,16.4-5.3,4.8-1.8,12.9-4.5,17.7-6.1,4.8-1.8,12.4-4.3,16.4-5.3,4.3-1.3,18.9-6.3,32.8-11.4,13.9-5,29-10.4,33.3-11.6,7.8-2.3,26-18.4,26-22.7s3-6.3,6.6-11.6c3.5-5.3,7.6-11.9,8.8-14.6,1.3-2.8,3.8-7.3,5.3-10.1,5.6-8.3,13.4-22,23.5-40.4,5.3-9.8,12.4-22.2,15.4-27.8,14.9-26.5,19.2-37.1,17.7-45.4-1-4.5-3.3-9.6-5.3-11.4-2-1.8-3.8-4.5-3.8-6.1,0-4-12.1-12.9-20.2-14.9-3.5-.8-14.1-3.3-23.7-5.6-9.6-2.3-19.4-5-22-6.3-2.5-1.5-7.1-2.5-10.1-2.5s-11.6-1.8-19.2-3.8c-7.3-2-19.4-5.6-26.8-7.6h0c-15.7-4.3-31.1-5-33.3-1.3-1.5,2.5-.5,3.3,10.1,6.1,6.6,1.5,44.2,14.9,61.8,21.7,7.6,3,16.7,6.3,20.2,7.6,20.4,6.8,24,9.3,28.5,22.7l4.8,13.1-9.3,17.7c-5,9.8-13.6,24.5-19.2,32.8-5.3,8.3-9.8,15.4-9.8,16.2,0,3.3-44.4,59.8-49.7,63.4-9.1,6.1-66.4,25.7-89.4,30.8-11.9,2.5-15.4,1-36.9-17.2-17.7-15.1-18.2-15.4-21.2-10.1-4,7.6-1.8,44.4,3.3,54,6.3,12.1,11.4,26.5,15.9,45.4,6.6,28.5,11.4,47,16.2,63.1,4,14.1,4.8,15.1,12.6,15.9,4.5.5,13.6-.8,19.9-3,6.6-2,18.4-5.8,26.3-8.1,14.9-4.5,34.1-18.9,31.3-23.2Z"/>
  <path class="st0" d="M1045.1,2082.2c-13.9-9.3-30.3-22.5-36.6-29-22.2-23.7-50.7-56.3-76-86.8-5-6.1-18.2-22-29.3-35.1-16.7-20.2-55.3-69.4-72.5-93.2-2.8-3.5-12.6-16.9-21.7-29.5-23.5-31.3-38.4-53.3-56.5-83.1l-15.4-25.2.5-34.1c.3-20.2,2.3-43.4,4.8-56.8l4.5-22.7,59.6-59.3c32.8-32.6,63.1-63.9,67.4-69.4,6.6-8.8,33.3-61.1,53.8-106,3.8-8.3,10.4-22.5,14.6-31.6,14.1-30.3,19.9-43.9,37.1-84.6,9.1-22.2,18.4-44.2,20.4-48.7,4.3-9.8,4.5-23.7,1-35.8-1.5-4.8-3.8-13.4-4.8-18.9-1.3-5.6-4.8-19.2-7.8-30.3-3.3-11.1-6.6-24-7.3-28.8h0c-1.5-9.1-6.1-12.6-9.1-7.8-2.3,3.5.3,32.8,5.3,64.4,2,12.4,3.5,27,3.5,32.3,0,10.1-9.6,32.1-22.7,51.5-4.3,6.1-7.6,11.6-7.6,12.1,0,.8-5,8.6-11.1,17.4-6.1,8.8-11.4,17.2-11.9,18.4-1.8,4.3-31.6,44.7-83.6,114.1-61.1,81.3-83.8,110.1-121.2,153.7-15.1,17.9-20.2,29-24.7,56-3,17.7-4.3,31.1-8.8,86.1-2.5,29,1,39.1,27.8,77.8,9.8,14.4,59.3,80.5,66.1,88.6,2.8,3.5,15.9,19.2,28.8,35.1,22.5,27.3,54.8,65.6,57.8,68.4.8.8,4.5,5.3,8.6,10.1,15.1,18.7,49.5,55.3,80,85.8,25,24.7,36.1,33.8,50.5,41.7,59.3,31.1,63.9,32.8,62.4,24.7-.5-2.5-12.1-12.1-26-21.5Z"/>
  <path class="st0" d="M1136,2023.4c-1.8-4.3-4.8-11.6-6.8-16.4-4.8-10.6-18.7-45.2-24-59.3-2.3-5.6-5.3-13.6-7.1-17.7-3.3-7.6-8.3-21-14.9-38.6-17.9-50-19.4-59.1-15.1-94.9,4.5-37.1,10.4-75.7,14.1-96.2,1.5-8.3,3.5-21,4.5-27.8,2-15.1,6.6-39.1,18.9-101,12.9-64.6,20.4-99.5,29.3-133.8,5.3-21.5,5.6-33.6.8-55.8h0c-4.5-22-7.6-27.5-10.1-19.4-3.8,12.1-16.2,44.2-19.4,50-1.3,2.8-3.5,8.3-4.5,12.6-1,4-4.3,13.9-7.3,21.5-3,7.6-6.3,16.7-7.6,20.2-1.3,3.5-4.5,12.6-7.6,20.2-3,7.6-6.6,17.2-7.6,21.5-1.3,4-6.3,18.9-11.4,32.8-5,13.9-10.1,28.5-11.1,32.8-1.3,4-3.3,10.4-4.5,13.9-1.5,3.5-4.5,13.1-7.1,21.5-2.3,8.3-5.8,19.2-7.6,24s-5,15.7-7.3,24c-2.5,8.3-5.6,18.4-7.1,22.7-1.3,4-3.3,11.6-4.3,16.4s-3.3,12.9-4.8,17.7c-14.4,47-14.6,63.1-.3,96.2,34.6,80.8,84.3,179.7,147.2,293.9,6.8,12.4,12.6,18.9,14.4,17.2,3.5-3.5-4.5-33.1-16.9-62.6-6.6-15.4-13.1-31.3-14.9-35.3Z"/>
  <path class="st0" d="M758.1,1262c-.5-1.3-8.3,3.8-17.4,11.1-16.4,12.9-49,39.1-59.1,47.5-31.1,25.7-39.1,33.3-38.1,34.6,1.8,1.5,18.4-3,31.3-8.6,4.5-2,9.3-3.5,10.9-3.5s7.3-2.3,13.4-5c8.3-3.5,14.9-10.4,28.3-28.3,9.6-12.9,20.7-28.3,24.5-34.3h0c4-6.1,6.8-11.9,6.3-13.4Z"/>
  <path class="st0" d="M371.6,1103.5c8.1,13.4,10.9,12.6,41.9-11.1,10.9-8.3,20.4-16.9,21.2-19.2,2.8-7.6,18.7-25.5,21.5-24,4.5,3-2,28.3-10.9,40.6-2,3-11.9,14.4-21.5,25-22,24.5-28.8,33.6-28.8,39.1s32.3,48,48.5,63.6c18.9,18.4,18.7,18.7,29.8-37.4,4.8-25,9.6-30,32.8-34.1,6.3-1,16.4-3,22.7-4.5,6.3-1.5,20.7-4.5,32.3-6.8,11.4-2,29.5-5.6,40.4-7.3,10.6-2,27.8-5,37.9-6.8,31.1-5.3,31.3-4.5-6.1-42.7-17.9-18.2-34.3-34.3-36.4-35.3-2-1-18.4-3.5-36.4-5.3-23.2-2.5-32.8-4.3-33.8-6.8-1.5-4.3,8.1-12.1,17.2-13.9,3.5-.8,12.6-3.8,20.2-6.8,7.6-2.8,22-8.1,31.6-11.4,9.8-3.3,20.4-7.1,24-8.3,3.5-1.3,11.4-4.5,17.7-6.8,6.3-2.5,14.9-5.8,18.9-7.6,4.3-1.8,12.4-5,18.4-7.3,5.8-2.3,15.4-5.8,21.5-8.1,5.8-2.3,14.1-5.6,18.2-7.3,4.3-1.8,12.6-5.3,18.9-7.8,11.9-4.5,35.3-25,35.3-30.5s-.3-4.5-17.2,6.8c-8.8,6.1-23,12.4-33.8,15.4-10.1,2.8-24,6.6-31.1,8.6-22.5,6.1-39.4,7.1-51.5,2.8-11.9-4-18.4-3.3-45.4,5-12.4,3.8-25.5,4.5-25.5,1.5s23-19.7,29-21.5c2.8-.8,11.4-3.8,18.9-6.8,7.6-3,16.4-6.1,19.7-6.8,10.1-2.3,14.9-11.6,16.4-31.8,2-29,5-33.6,36.9-57.6,15.4-11.6,28-22,28-23h0c0-3.3-8.8-2.3-12.1,1-1.8,1.8-8.3,6.1-14.4,9.6-23.5,13.1-68.7,41.7-77.8,48.7-5.3,4-14.1,13.4-19.7,20.4-30.5,39.9-36.1,45.9-54.5,59.1-10.9,7.8-36.6,26.8-57.6,42.7-100,75.2-117.4,94.2-105.5,114.6Z"/>
  <path class="st0" d="M552.9,445.3c26.8-3,50.2-4.8,131.3-10.9,19.9-1.5,20.2-1.5,21.7-9.1.8-4.3.8-9.1.3-10.9-1.5-4.3-38.1-4-80,.5-42.7,4.8-78.8,5.8-82,2.5-1.5-1.5-2.5-9.8-2-18.9l.8-16.2,30.3-3c16.7-1.8,48.2-4.3,70.2-5.3,41.4-2.3,44.4-3.3,44.7-13.6,0-12.1-.8-12.4-38.9-10.9-19.4.8-50.7,3.3-69.4,5.3-20.7,2.5-34.6,3-36.1,1.5-1.3-1.3-2-9.6-1.5-18.4l.8-15.9,42.9-4.5c23.7-2.3,50.5-4.3,59.6-4.5,9.1,0,25.5-.8,36.1-1.8,16.4-1.3,20.2-2.5,23.2-7.1,2.8-4.3,3-7.3,1.3-12.4h0c-3-7.3-5.3-7.6-34.3-4-8.3,1-24.7,2-36.6,2.3-11.9.3-35.6,2-53,4-17.4,2-38.1,3.8-45.9,3.8s-14.9,1-15.7,2.3c-2.3,3.5-2,144.7.3,146.7,1,1,15.7.3,32.3-1.5Z"/>
  <path class="st0" d="M264.6,473.3c1.5.5,7.1.3,11.9-.8l8.8-2,1.3-21.2,1.3-21.5,15.1-3c8.3-1.8,28.3-4.3,44.2-5.8,15.9-1.3,35.1-3.5,42.7-5,7.3-1.3,18.2-2.5,24-2.8,15.4,0,31.8-9.1,38.6-21.2,4.8-8.3,5.8-13.9,5.8-33.1s-.8-24.2-5.8-31.6c-3-4.8-8.6-9.8-11.9-11.4-13.4-6.1-18.7-6.1-95.9,2.8-49.7,5.8-74,8.8-78.8,10.4-4.3,1.3-4.5,7.1-4.5,73.2s.8,72.2,3.3,73ZM322.9,343.3c14.4-1.3,29-3,32.6-3.8,3.5-1,17.2-2.5,30-3.8h0c47.7-3.8,47.5-4,47.5,24s-.5,18.9-6.6,23.7c-4.5,3.5-10.4,5.3-18.4,5.3s-24.7,1.8-40.6,3.8c-60.6,7.6-75.7,9.1-78.3,7.6-1.5-.8-2.5-11.6-2.5-25.2,0-28.8-.8-28.3,36.4-31.6Z"/>
  <path class="st0" d="M83.3,896.2c2.3,17.4,3.8,34.8,3.8,38.9s1.8,17.2,3.5,29c4.8,28.3,9.1,55.5,11.6,76,2,15.7,3.8,24.7,11.6,64.9,12.6,64.4,21.2,104,30,135.8,1.8,6.8,5.3,19.9,7.6,29,2.3,9.1,5.8,21,7.8,26.5,2,5.8,3.5,12.1,3.5,14.4s1.5,8.1,3.5,12.6c1.8,4.5,5.3,15.1,7.8,23.5,2.3,8.3,5.8,19.2,7.6,24,7.3,20.7,9.3,27,11.4,34.1,1.3,4,4.5,13.9,7.6,21.5,8.6,22,12.9,33.6,14.9,40.6,1.3,3.5,3.3,8.6,4.8,11.4,1.5,2.5,8.6,18.9,15.7,36.4,18.7,44.9,47.7,105.5,66.9,140.1,4.8,8.3,10.4,18.4,12.4,22.7,2,4,7.3,13.1,11.4,20.2,4.3,6.8,8.8,14.9,10.4,17.7,1.5,2.8,4.8,8.3,7.6,12.6,2.8,4,6.1,9.8,7.6,12.6,3.8,7.3,7.6,13.1,18.9,30.3,5.6,8.3,11.1,17.2,12.6,19.4,8.6,14.4,57.3,82.3,74,103,29.8,37.4,38.9,48.2,60.1,73.2,55,63.9,120.4,129,188.1,186.8,25.7,22,68.9,56.8,94.2,75.7,20.2,15.4,73.2,52.5,84.3,59.3,2.3,1.5,11.1,7.1,19.4,12.6,8.3,5.6,17.2,11.1,19.4,12.6,2.3,1.3,16.4,9.8,31.6,18.9,31.3,18.9,32.3,19.4,46.7,27.5,6.1,3.3,17.2,9.3,24.7,13.6,13.6,7.6,56.5,29,88.4,44.4,9.1,4.3,17.9,7.8,19.7,7.8s9.6-3.3,17.4-7.3c84.1-41.9,106-53.3,118.1-61.1,4.3-2.5,9.3-5.6,11.4-6.6,2-1,18.9-10.9,37.4-22,18.4-11.4,35.6-21.7,37.9-23,2.3-1.5,12.6-8.3,22.7-15.1,10.4-7.1,20.4-13.9,22.5-15.1,3.5-2,24.5-16.7,48.5-33.6,9.6-7.1,52-39.1,53.3-40.9.8-.8,6.3-5.3,12.6-10.1,20.4-15.9,81.8-68.7,100.7-86.8,51.5-49.5,105.8-105.8,131.8-136.6,4.8-5.6,9.8-11.4,11.1-12.9,17.4-18.9,82-102.5,99.7-128.5,37.1-55,54-81.3,60.6-93.4,1.5-2.8,4.8-8.6,7.6-12.6,2.8-4.3,5.8-9.3,6.8-11.4.8-2,4-7.8,7.1-12.6,9.6-15.4,26.8-48,44.4-83.3,25.2-51.5,47.7-99.7,47.7-103.3s1.5-5.6,3.5-9.6c3.5-6.8,16.4-38.4,23-56.3,1.8-4.8,4.8-13.4,6.8-18.9,9.1-24.7,29.3-86.8,38.4-117.4,15.7-54.3,27.5-101.7,38.1-152.7,2.3-11.1,5.8-26.8,7.8-34.6,2-8.1,3.5-17.2,3.5-20.2s1.5-13.9,3.5-23.5c3.5-16.2,5.8-30.8,14.1-84.6,1.8-10.4,4-27.5,5-37.9,1-10.4,3.3-28.5,4.5-40.4,5.6-42.7,10.6-94.9,10.6-108.6s1.8-31.1,3.8-51.8c8.1-83.1,7.1-575.6-1.3-585.7-1.8-2-7.1-4.3-12.4-5-5-.8-18.7-3-30.5-4.8-50-8.6-141.4-22-204.5-30.3-15.9-2.3-38.6-5.3-50.5-6.8-11.9-1.8-31.1-3.8-42.9-4.8s-31.1-3-42.9-4.5c-121.2-15.9-351.2-31.3-533.9-35.8h0c-146.9-3.8-303.9-1.8-431.7,5.3-29,1.5-71.2,3.8-93.4,4.8-41.9,2-91.4,5.8-138.8,10.4-15.1,1.5-40.1,3.8-55.5,4.8-15.1,1.3-39.1,3.3-53,5-13.9,1.5-40.6,4.5-59.3,6.6-18.7,2-43.2,4.8-54.3,6.3s-29.3,3.8-40.4,4.8c-26.8,2.8-58.3,7.1-83.3,11.6-11.1,2-23.5,3.5-27.5,3.5s-17.7,1.8-30.3,3.8c-12.6,2.3-33.8,5.8-47,7.8s-30.3,4.8-37.9,6.3c-7.6,1.5-21.7,3.5-31.1,4.8-9.6,1-18.7,3.3-20.2,4.8-1.8,1.8-4,29.5-6.1,75.5-4,88.4-3,420.3,1.5,489,4,61.1,9.6,127,14.1,165.4ZM108.3,276.7l2.8-75.5,24-4.5c23.2-4.3,49.2-8.6,100.2-15.9,13.6-2,33.3-5,43.7-6.6,10.4-1.8,24-3.5,30.3-4,6.3-.8,23.2-2.8,37.9-4.8,53.5-7.3,69.9-9.1,95.9-11.4,14.6-1.3,32.6-3.5,40.1-5,7.3-1.3,19.9-2.5,27.8-2.5s25-1.8,38.1-3.8,31.3-3.8,40.4-3.8,30-1.8,46.7-3.8c16.4-2,39.1-3.8,50.5-3.8,11.1-.3,28.8-1.3,39.1-2.5,10.4-1.3,46.7-3.8,80.8-5.3,34.1-1.3,75.5-3.5,92.1-4.5,46.5-3.3,461.2-1.5,520,2,122.9,7.3,174.2,10.9,209.5,14.1,21,2,42.9,3.8,49.2,3.8s27.3,1.8,46.7,3.8c19.4,2.3,50.2,5.6,68.2,7.6,57.8,6.3,102.7,11.6,130.8,15.4,113.9,15.1,162.6,22.5,208.8,30.8l24,4.5,2.3,22.5c3.5,37.4,3.3,428.7-.5,493.5-6.8,121.9-21,252.2-36.1,333.2-1.5,7.6-3.5,20.7-4.8,29-1,8.3-3.3,20.2-4.5,26.5-1.5,6.3-4.5,20.4-6.8,31.6-6.6,30.8-11.4,51.8-15.4,65.9-2,7.1-3.5,14.9-3.5,17.4s-1.5,9.6-3.5,16.2c-2,6.3-5.6,18.4-7.8,26.8-4,14.6-5.6,20.2-15.1,53-2.5,8.3-5.8,19.2-7.6,24-1.8,4.8-5.6,16.2-8.6,25.2-6.1,19.2-9.6,30.3-14.9,44.2-2,5.6-5,14.1-6.8,18.9-6.6,17.9-19.4,49.5-23,56.3-2,4-3.5,8.3-3.5,9.6,0,2-5.3,13.9-23.2,52.8-14.6,31.3-50,100.7-57.6,113.6-1.3,2-13.4,22.5-27,45.2-30.5,51-27,45.2-44.9,72.2-15.7,23.5-80.5,111.6-85.6,116.1-1.5,1.3-10.1,11.6-18.9,22.7-9.1,11.1-18.2,22-20.2,24.2-2.3,2.3-13.6,14.6-25.2,27.8-27.5,30.3-93.2,96.2-123.7,123.7-13.1,11.6-25,22.2-26.5,23.7-1.5,1.3-10.9,9.1-20.4,17.2-9.8,8.3-20.4,17.2-24,20.2-30.5,26-152,112.8-169.4,121.4-2,.8-6.6,3.5-10.4,6.1-5.6,3.5-35.6,21.7-52.8,32.1-34.1,20.2-126.2,66.9-131.8,66.9s-73.2-33.6-114.1-57.1c-8.3-4.8-17.4-9.8-20.2-11.1-2.8-1.5-8.3-4.8-12.6-7.6-4-2.8-9.8-6.1-12.6-7.6-2.8-1.5-8.3-4.8-12.6-7.6-4-2.8-9.3-5.8-11.4-6.8-2-1-10.9-6.6-19.7-12.6-8.8-6.1-16.4-10.9-16.9-10.9s-8.3-5-17.4-11.4c-9.1-6.3-24.2-16.7-33.6-23.2-9.6-6.3-30.3-21.7-46.2-34.1-84.1-64.4-111.3-88.4-183-159.8-45.2-45.4-62.1-63.1-82-87.1-7.6-8.8-16.4-19.2-19.7-22.7-3.3-3.5-12.9-15.4-21.5-26.5s-16.7-21.5-18.2-23c-6.1-6.1-57.3-76.2-63.1-86.3-1.5-2.3-10.1-15.7-19.2-29.5-9.1-13.9-19.7-30.3-23.5-36.6-3.8-6.3-7.8-13.1-9.1-15.1-4.3-6.6-24.2-41.4-26-45.4-1-2-5.8-11.1-10.9-20.2-24.2-44.7-50.7-100-70.4-147.7-5-12.6-10.4-25-11.9-27.5-1.5-2.8-3.5-7.8-4.8-11.4-2-7.1-6.3-18.7-14.9-40.6-3-7.6-6.3-17.4-7.6-21.5-2-7.1-4-13.4-11.4-34.1-1.8-4.8-5.3-15.7-7.6-24-2.5-8.3-6.1-19.7-7.6-25.2-11.9-37.6-29.3-105.3-37.9-146.4-2.3-11.1-5.8-27.5-7.6-36.6-11.6-55.3-34.3-200.2-34.1-218.4,0-4.3-1.5-21.7-3.8-39.1-5-43.4-10.9-127.2-13.9-205.7-3.3-84.1-2.8-286.3,1-383.5Z"/>
  <path class="st0" d="M787.6,422.1c9.6,5,13.1,5.3,74.5,3.8,112.3-2.5,111.6-1.8,110.6-93.9l-.8-55.5-11.4-.8c-6.3-.5-12.4,0-13.4,1-1,1-1.8,27.3-1.8,58.1,0,45.2-.8,56.8-3.5,59.8-4.5,4.3-24.2,6.3-90.1,8.3-48.5,1.8-49.7,1.8-52.5-3.5-1.8-3.3-2.8-24.5-2.8-59.6,0-60.8,0-61.1-17.7-57.3l-8.8,1.8-.8,54c-.8,65.1,1.5,75.2,18.4,83.8Z"/>
  <path class="st0" d="M704.3,888.6c-14.6,0-18.9,4.5-18.9,20.2s1,12.9,2.3,13.6,7.8,0,14.9-1.5c17.7-4.3,26.3-18.9,16.7-28.3h0c-2.3-2.5-8.3-4-14.9-4Z"/>
  <path class="st0" d="M680.1,866.4c-3,5.6-6.6,5.3,57.1,2,48.5-2.8,58.3-4.5,101-18.2,12.6-3.8,29-9.1,36.6-11.1,7.6-2.3,17.9-5.6,22.7-7.6,4.8-1.8,11.9-3.8,15.7-4.5,9.6-2,20.2-11.9,26.8-24.5,3.3-6.1,8.1-14.6,10.6-18.7,2.8-4.3,5.8-9.3,6.8-11.4s8.3-15.1,16.4-28.8c8.1-13.6,15.1-27.3,15.4-30.3h0c.5-5-.5-5.3-29.8-5.8-21.7-.3-33.1.8-40.4,3.5-24.2,9.1-30.8,11.6-38.4,14.9-4.5,2-12.1,5-16.4,6.8-13.1,5.3-24,10.4-55,25.2-30.8,14.9-33.1,16.9-64.4,56-25,31.3-28,34.1-46.7,41.4-8.6,3.5-16.7,8.3-17.9,10.9Z"/>
  <path class="st0" d="M745.5,757.9c2.3-1.8,6.1-3.8,8.1-4.8,2-1,9.3-5,16.4-9.1,6.8-4,19.9-11.4,29-16.4,9.1-4.8,19.9-10.9,24-13.4,4.3-2.5,13.4-7.6,20.2-11.1,14.1-7.3,34.6-18.4,60.6-32.8,9.8-5.3,33.8-17.9,53.8-28l36.1-18.4,42.2-4c32.8-3.3,73.5-4.3,184.8-4.5l142.6-.5,9.6,6.1c5.3,3.3,9.1,6.6,8.3,7.1-.8.8-19.2,2.3-41.1,3.3-22,1.3-52.3,3.3-67.7,5-15.1,1.5-45.4,4.3-66.9,6.6-35.8,3.3-86.1,9.8-100.7,12.6-4.3,1-5.3,2-3.3,4,1.8,1.8,13.4,2.3,33.8,1.3,17.2-.5,65.4-2.8,107.3-4.5,68.7-2.8,77.2-2.8,85.8.8,5.3,2.3,19.9,8.3,32.3,13.4,22,9.1,58.8,25.7,71.9,32.8,9.3,4.8,36.9,8.6,79.8,11.1q37.9,2,60.6,12.9c12.4,6.1,30.5,15.7,40.1,21.5,9.8,5.6,19.4,11.1,21.5,12.1s7.3,4,11.4,6.8c4.3,2.8,9.8,6.1,12.6,7.3,2.8,1.3,9.3,5.3,14.6,8.8,5.3,3.5,10.1,6.6,10.6,6.6s8.1,4.8,16.9,10.6c8.8,6.1,19.7,12.9,24,15.1,8.3,4.8,21,6.1,21,2.3s-80-82.3-90.9-90.6c-6.3-4.8-19.2-12.6-40.4-24-6.3-3.5-15.4-8.6-20.2-11.4-4.8-3-14.4-8.3-21.5-11.9-6.8-3.8-22.7-12.1-35.3-18.9-23.5-12.6-104.8-53.5-125-62.6-20.4-9.3-38.6-12.6-78.3-14.1-21.5-1-60.6-2.8-87.1-4h0c-54.3-2.5-117.4-2.5-176.7.3-110.8,5-139.1,7.1-147.7,10.9-6.6,2.8-12.6,9.3-22.5,24.2-15.7,23.5-21,29.3-52.3,55.5-29,24.7-57.3,45.9-85.1,64.1-12.4,8.1-23,16.4-23.7,18.4-2,5.3,1.3,7.3,6.3,3.8Z"/>
  <path d="M18.9,935.3c0,4,1.5,18.4,3.5,31.6,2,13.1,5,32.6,6.6,42.9,1.8,10.4,4,26.3,5,35.3,1.3,9.1,3.5,23.2,5,31.6,1.5,8.3,4.5,24.2,6.6,35.3,6.6,34.8,17.2,85.6,23,108.6,2,8.3,5.3,21.7,7.3,29.5,8.3,33.6,14.9,58.8,22.2,82.8,2,6.3,5.3,18.2,7.8,26.5,2.5,8.3,5.6,17.9,7.1,21.5,1.3,3.5,3.3,9.6,4.5,13.9,1,4,6.1,18.9,11.1,32.8,5,13.9,10.1,28,11.4,31.6,1.3,3.5,4.5,12.6,7.6,20.2,3,7.6,6.3,16.9,7.6,20.4,1,3.5,3,8.6,4.5,11.4,1.5,2.5,6.8,14.9,11.9,27.5,5.3,12.4,12.1,29,15.7,36.6,8.6,18.9,60.3,122.7,66.9,133.8,2.8,4.8,7.8,13.9,11.4,20.2,3.3,6.3,8.3,14.6,11.1,18.9,2.5,4,5.8,9.8,7.3,12.6s4.5,8.1,7.1,11.9c2.3,3.5,7.6,12.1,11.6,18.9,12.6,21,35.1,54.5,46.2,69.4,6.1,7.8,10.9,14.9,10.9,15.9,0,1.8,41.7,57.3,58.8,78.3,6.8,8.3,16.7,20.2,21.7,26.5,54.3,66.4,144.9,159,213.6,218.1,30.5,26.3,31.6,27,50.5,41.9,9.8,7.6,18.2,14.4,18.9,15.1,5,6.1,109.8,81.3,128.2,92.1,2.3,1.5,11.1,7.1,19.4,12.6,18.2,11.9,23.5,15.4,30.3,18.9,2.8,1.5,8.6,4.8,12.6,7.6,4.3,2.8,9.8,6.1,12.6,7.6,2.8,1.5,10.9,6.1,17.7,10.4,7.1,4,16.2,9.3,20.2,11.4,4.3,2,11.6,6.1,16.4,9.1,10.6,6.3,89.1,45.7,117.4,58.8,11.1,5,22.2,10.4,24.5,11.6,5.8,3,15.9,3,21.7,0,2.3-1.3,11.6-5.8,20.7-9.8,27.5-12.6,98.7-48,116.1-57.6,9.1-5,21.5-11.9,27.8-15.4,6.3-3.3,14.9-8.3,18.9-11.1,4.3-2.5,9.8-5.8,12.6-7.1,2.8-1.3,9.1-5,13.9-8.3s10.6-6.8,12.6-7.8c2-1,7.3-4,11.4-6.8,4.3-2.8,9.1-5.8,11.1-6.6,1.8-1,15.4-9.8,30.3-19.9,14.6-9.8,32.6-22,39.4-26.5,12.6-8.6,91.1-67.9,112.3-84.8,69.9-55.8,174.9-158.8,236-230.5,2.8-3.3,6.8-7.8,9.1-10.1,2-2.3,7.6-9.1,12.4-15.4,4.5-6.3,9.8-12.6,11.4-13.9,1.5-1.5,10.1-12.1,18.9-24,9.1-11.9,17.7-23.2,19.4-25.2,23-28.8,88.9-126,101.7-150.2,1.5-2.8,4.8-8.6,7.3-12.6,2.8-4.3,8.1-13.4,11.9-20.2,3.8-7.1,8.6-15.4,10.4-18.9,12.9-23.2,23.5-43.2,37.4-70.7,21.2-42.4,33.1-68.2,50.5-109.8,2-4.8,5.3-12.6,7.3-17.2,1.8-4.3,5.3-13.1,7.8-19.4,2.3-6.3,5.6-14.1,6.8-17.7,1.5-3.5,3.5-9.1,4.5-12.6,1.3-3.5,4.5-12.6,7.6-20.2,3-7.6,6.3-17.4,7.6-21.5,2-7.1,4-13.4,11.4-34.1,1.8-4.8,5.3-15.7,7.6-24,2.5-8.3,5.6-17.9,7.1-21.5,1.3-3.5,3.3-10.4,4.5-15.1,1-4.8,4.3-16.9,7.1-26.5,3-9.8,6.3-22.2,7.8-27.8,1.3-5.6,3.5-15.1,5.3-21.5,8.3-32.1,12.1-48,21.2-92.1,2.3-11.1,5.8-27.3,7.8-35.8,2-8.6,3.5-18.2,3.5-21.5s1.5-13.9,3.5-23.5c11.9-56.8,34.1-237,34.6-282.7.5-32.6,3-53,6.8-52.5,2.3.5,3-57.6,3-284.8s-1-284.8-2.3-284c-3.5,2.3-5.3-5.3-5.6-25.7-.3-10.6-1-25.7-1.8-33.3q-1.8-13.9-11.9-15.7c-5.6-.8-17.4-3-26.5-4.8-9.1-1.8-22.7-3.8-30.3-4.8s-20.7-3-29-4.5c-16.7-3-35.3-6.1-130-20.7-10.4-1.8-26.8-4-36.6-5-9.6-1-25.5-3.3-35.3-4.8-9.6-1.5-31.3-4.3-48-6.3-16.7-2-40.4-5-53-6.8-12.4-1.5-32.3-3.8-44.2-4.8-11.9-1-33.3-3-48-4.8-14.6-1.5-41.9-4.5-60.6-6.6-18.7-2-40.4-3.8-48-3.8s-28-1.8-45.4-3.8c-17.4-2-39.9-3.8-50.2-3.8s-36.9-1.5-59.3-3.5c-22.2-2-66.4-4.3-98-5-57.1-1.5-66.4-2.5-63.6-6.8.8-1.3-86.1-2.3-209.8-2.3s-210.5,1-209.8,2.3h0c2.5,3.8-8.1,5-57.8,6.6-72.5,2-224.2,12.4-297.9,20.2-19.4,2-39.4,3.8-44.2,3.8s-22.5,1.5-39.1,3.8c-16.7,2-46.2,5.6-65.6,7.6-19.4,2.3-48.5,5.8-64.4,7.8-91.9,11.9-89.1,11.6-162.3,22.5-39.6,6.1-94.4,15.1-139.4,23-11.1,1.8-25.5,4-32.1,4.8-6.3.8-12.9,2.8-14.1,4.5C2.5,112.1,0,253.2,0,477.1s2.5,317.8,15.1,420.3c2.3,16.7,3.8,33.6,3.8,37.9ZM67.7,241.8c2-45.9,4.3-73.7,6.1-75.5,1.5-1.5,10.6-3.8,20.2-4.8,9.3-1.3,23.5-3.3,31.1-4.8,7.6-1.5,24.7-4.3,37.9-6.3s34.3-5.6,47-7.8c12.6-2,26.3-3.8,30.3-3.8s16.4-1.5,27.5-3.5c25-4.5,56.5-8.8,83.3-11.6,11.1-1,29.3-3.3,40.4-4.8s35.6-4.3,54.3-6.3c18.7-2,45.4-5,59.3-6.6,13.9-1.8,37.9-3.8,53-5,15.4-1,40.4-3.3,55.5-4.8,47.5-4.5,96.9-8.3,138.8-10.4,22.2-1,64.4-3.3,93.4-4.8,127.7-7.1,284.8-9.1,431.7-5.3h0c182.8,4.5,412.8,19.9,533.9,35.8,11.9,1.5,31.1,3.5,42.9,4.5s31.1,3,42.9,4.8c11.9,1.5,34.6,4.5,50.5,6.8,63.1,8.3,154.5,21.7,204.5,30.3,11.9,1.8,25.5,4,30.5,4.8,5.3.8,10.6,3,12.4,5,8.3,10.1,9.3,502.6,1.3,585.7-2,20.7-3.8,44.2-3.8,51.8,0,13.6-5,65.9-10.6,108.6-1.3,11.9-3.5,30-4.5,40.4-1,10.4-3.3,27.5-5,37.9-8.3,53.8-10.6,68.4-14.1,84.6-2,9.6-3.5,20.2-3.5,23.5s-1.5,12.1-3.5,20.2c-2,7.8-5.6,23.5-7.8,34.6-10.6,51-22.5,98.5-38.1,152.7-9.1,30.5-29.3,92.6-38.4,117.4-2,5.6-5,14.1-6.8,18.9-6.6,17.9-19.4,49.5-23,56.3-2,4-3.5,8.3-3.5,9.6,0,3.5-22.5,51.8-47.7,103.3-17.7,35.3-34.8,67.9-44.4,83.3-3,4.8-6.3,10.6-7.1,12.6-1,2-4,7.1-6.8,11.4-2.8,4-6.1,9.8-7.6,12.6-6.6,12.1-23.5,38.4-60.6,93.4-17.7,26-82.3,109.6-99.7,128.5-1.3,1.5-6.3,7.3-11.1,12.9-26,30.8-80.3,87.1-131.8,136.6-18.9,18.2-80.3,70.9-100.7,86.8-6.3,4.8-11.9,9.3-12.6,10.1-1.3,1.8-43.7,33.8-53.3,40.9-24,16.9-44.9,31.6-48.5,33.6-2,1.3-12.1,8.1-22.5,15.1-10.1,6.8-20.4,13.6-22.7,15.1-2.3,1.3-19.4,11.6-37.9,23-18.4,11.1-35.3,21-37.4,22-2,1-7.1,4-11.4,6.6-12.1,7.8-34.1,19.2-118.1,61.1-7.8,4-15.9,7.3-17.4,7.3s-10.6-3.5-19.7-7.8c-31.8-15.4-74.7-36.9-88.4-44.4-7.6-4.3-18.7-10.4-24.7-13.6-14.4-8.1-15.4-8.6-46.7-27.5-15.1-9.1-29.3-17.7-31.6-18.9-2.3-1.5-11.1-7.1-19.4-12.6-8.3-5.6-17.2-11.1-19.4-12.6-11.1-6.8-64.1-43.9-84.3-59.3-25.2-18.9-68.4-53.8-94.2-75.7-67.7-57.8-133-122.9-188.1-186.8-21.2-25-30.3-35.8-60.1-73.2-16.7-20.7-65.4-88.6-74-103-1.5-2.3-7.1-11.1-12.6-19.4-11.4-17.2-15.1-23-18.9-30.3-1.5-2.8-4.8-8.6-7.6-12.6-2.8-4.3-6.1-9.8-7.6-12.6-1.5-2.8-6.1-10.9-10.4-17.7-4-7.1-9.3-16.2-11.4-20.2-2-4.3-7.6-14.4-12.4-22.7-19.2-34.6-48.2-95.2-66.9-140.1-7.1-17.4-14.1-33.8-15.7-36.4-1.5-2.8-3.5-7.8-4.8-11.4-2-7.1-6.3-18.7-14.9-40.6-3-7.6-6.3-17.4-7.6-21.5-2-7.1-4-13.4-11.4-34.1-1.8-4.8-5.3-15.7-7.6-24-2.5-8.3-6.1-18.9-7.8-23.5-2-4.5-3.5-10.1-3.5-12.6s-1.5-8.6-3.5-14.4c-2-5.6-5.6-17.4-7.8-26.5-2.3-9.1-5.8-22.2-7.6-29-8.8-31.8-17.4-71.4-30-135.8-7.8-40.1-9.6-49.2-11.6-64.9-2.5-20.4-6.8-47.7-11.6-76-1.8-11.9-3.5-25-3.5-29s-1.5-21.5-3.8-38.9c-4.5-38.4-10.1-104.3-14.1-165.4-4.5-68.7-5.6-400.6-1.5-489Z"/>
  <path d="M121.2,865.9c2.3,17.4,3.8,34.8,3.8,39.1-.3,18.2,22.5,163.1,34.1,218.4,1.8,9.1,5.3,25.5,7.6,36.6,8.6,41.1,26,108.8,37.9,146.4,1.5,5.6,5,16.9,7.6,25.2,2.3,8.3,5.8,19.2,7.6,24,7.3,20.7,9.3,27,11.4,34.1,1.3,4,4.5,13.9,7.6,21.5,8.6,22,12.9,33.6,14.9,40.6,1.3,3.5,3.3,8.6,4.8,11.4,1.5,2.5,6.8,14.9,11.9,27.5,19.7,47.7,46.2,103,70.4,147.7,5,9.1,9.8,18.2,10.9,20.2,1.8,4,21.7,38.9,26,45.4,1.3,2,5.3,8.8,9.1,15.1,3.8,6.3,14.4,22.7,23.5,36.6,9.1,13.9,17.7,27.3,19.2,29.5,5.8,10.1,57.1,80.3,63.1,86.3,1.5,1.5,9.6,11.9,18.2,23s18.2,23,21.5,26.5c3.3,3.5,12.1,13.9,19.7,22.7,19.9,24,36.9,41.7,82,87.1,71.7,71.4,99,95.4,183,159.8,15.9,12.4,36.6,27.8,46.2,34.1,9.3,6.6,24.5,16.9,33.6,23.2,9.1,6.3,16.9,11.4,17.4,11.4s8.1,4.8,16.9,10.9c8.8,6.1,17.7,11.6,19.7,12.6,2,1,7.3,4,11.4,6.8,4.3,2.8,9.8,6.1,12.6,7.6,2.8,1.5,8.6,4.8,12.6,7.6,4.3,2.8,9.8,6.1,12.6,7.6,2.8,1.3,11.9,6.3,20.2,11.1,40.9,23.5,107.8,57.1,114.1,57.1s97.7-46.7,131.8-66.9c17.2-10.4,47.2-28.5,52.8-32.1,3.8-2.5,8.3-5.3,10.4-6.1,17.4-8.6,138.8-95.4,169.4-121.4,3.5-3,14.1-11.9,24-20.2,9.6-8.1,18.9-15.9,20.4-17.2,1.5-1.5,13.4-12.1,26.5-23.7,30.5-27.5,96.2-93.4,123.7-123.7,11.6-13.1,23-25.5,25.2-27.8,2-2.3,11.1-13.1,20.2-24.2,8.8-11.1,17.4-21.5,18.9-22.7,5-4.5,69.9-92.6,85.6-116.1,17.9-27,14.4-21.2,44.9-72.2,13.6-22.7,25.7-43.2,27-45.2,7.6-12.9,42.9-82.3,57.6-113.6,17.9-38.9,23.2-50.7,23.2-52.8s1.5-5.6,3.5-9.6c3.5-6.8,16.4-38.4,23-56.3,1.8-4.8,4.8-13.4,6.8-18.9,5.3-13.9,8.8-25,14.9-44.2,3-9.1,6.8-20.4,8.6-25.2,1.8-4.8,5-15.7,7.6-24,9.6-32.8,11.1-38.4,15.1-53,2.3-8.3,5.8-20.4,7.8-26.8,2-6.6,3.5-13.9,3.5-16.2s1.5-10.4,3.5-17.4c4-14.1,8.8-35.1,15.4-65.9,2.3-11.1,5.3-25.2,6.8-31.6,1.3-6.3,3.5-18.2,4.5-26.5,1.3-8.3,3.3-21.5,4.8-29,15.1-81,29.3-211.3,36.1-333.2,3.8-64.9,4-456.2.5-493.5l-2.3-22.5-24-4.5c-46.2-8.3-94.9-15.7-208.8-30.8-28-3.8-73-9.1-130.8-15.4-17.9-2-48.7-5.3-68.2-7.6-19.4-2-40.4-3.8-46.7-3.8s-28.3-1.8-49.2-3.8c-35.3-3.3-86.6-6.8-209.5-14.1-58.8-3.5-473.6-5.3-520-2-16.7,1-58.1,3.3-92.1,4.5-34.1,1.5-70.4,4-80.8,5.3-10.4,1.3-28,2.3-39.1,2.5-11.4,0-34.1,1.8-50.5,3.8-16.7,2-37.6,3.8-46.7,3.8s-27.3,1.8-40.4,3.8-30.3,3.8-38.1,3.8-20.4,1.3-27.8,2.5c-7.6,1.5-25.5,3.8-40.1,5-26,2.3-42.4,4-95.9,11.4-14.6,2-31.6,4-37.9,4.8-6.3.5-19.9,2.3-30.3,4-10.4,1.5-30,4.5-43.7,6.6-51,7.3-77,11.6-100.2,15.9l-24,4.5-2.8,75.5c-3.8,97.2-4.3,299.4-1,383.5,3,78.5,8.8,162.3,13.9,205.7ZM514.5,1279.9c-1.8,0-3.3-.8-3.3-2s-6.3-9.1-13.9-18.2c-7.6-8.8-13.9-17.4-13.9-18.9,0-7.6,26.5-26.3,37.4-26.5,4.8,0,5.6,1.3,5.6,10.6,0,17.2-8.1,55-11.9,55ZM639.5,1528.8c-6.3,2.3-15.4,3.5-19.9,3-7.8-.8-8.6-1.8-12.6-15.9-4.8-16.2-9.6-34.6-16.2-63.1-4.5-18.9-9.6-33.3-15.9-45.4-5-9.6-7.3-46.5-3.3-54,3-5.3,3.5-5,21.2,10.1,21.5,18.2,25,19.7,36.9,17.2,23-5,80.3-24.7,89.4-30.8,5.3-3.5,49.7-60.1,49.7-63.4s4.5-7.8,9.8-16.2c5.6-8.3,14.1-23,19.2-32.8l9.3-17.7-4.8-13.1c-4.5-13.4-8.1-15.9-28.5-22.7-3.5-1.3-12.6-4.5-20.2-7.6-17.7-6.8-55.3-20.2-61.8-21.7-10.6-2.8-11.6-3.5-10.1-6.1,2.3-3.8,17.7-3,33.3,1.3h0c7.3,2,19.4,5.6,26.8,7.6,7.6,2,16.2,3.8,19.2,3.8s7.6,1,10.1,2.5c2.5,1.3,12.4,4,22,6.3,9.6,2.3,20.2,4.8,23.7,5.6,8.1,2,20.2,10.9,20.2,14.9s1.8,4.3,3.8,6.1c2,1.8,4.3,6.8,5.3,11.4,1.5,8.3-2.8,18.9-17.7,45.4-3,5.6-10.1,17.9-15.4,27.8-10.1,18.4-17.9,32.1-23.5,40.4-1.5,2.8-4,7.3-5.3,10.1-1.3,2.8-5.3,9.3-8.8,14.6-3.5,5.3-6.6,10.4-6.6,11.6,0,4.3-18.2,20.4-26,22.7-4.3,1.3-19.4,6.6-33.3,11.6-13.9,5-28.5,10.1-32.8,11.4-4,1-11.6,3.5-16.4,5.3-4.8,1.5-12.9,4.3-17.7,6.1-4.8,1.8-12.1,4.3-16.4,5.3-7.1,2.3-7.6,3.3-8.3,15.4-.5,7.1,1,20.4,3.3,29.5,2,9.3,3.8,19.7,3.8,23.2s1.8,9.8,4,14.1c3.3,6.3,5,7.3,10.6,6.3,8.3-1.3,28-6.1,43.9-10.6,7.8-2,12.6-2.5,13.6-.8,2.8,4.3-16.4,18.7-31.3,23.2-7.8,2.3-19.7,6.1-26.3,8.1ZM727.3,1309.7c-13.4,17.9-19.9,24.7-28.3,28.3-6.1,2.8-11.9,5-13.4,5s-6.3,1.5-10.9,3.5c-12.9,5.6-29.5,10.1-31.3,8.6-1-1.3,7.1-8.8,38.1-34.6,10.1-8.3,42.7-34.6,59.1-47.5,9.1-7.3,16.9-12.4,17.4-11.1.5,1.5-2.3,7.3-6.3,13.4h0c-3.8,6.1-14.9,21.5-24.5,34.3ZM1008.8,2078.9c-14.4-7.8-25.5-16.9-50.5-41.7-30.5-30.5-64.9-67.2-80-85.8-4-4.8-7.8-9.3-8.6-10.1-3-2.8-35.3-41.1-57.8-68.4-12.9-15.9-26-31.6-28.8-35.1-6.8-8.1-56.3-74.2-66.1-88.6-26.8-38.6-30.3-48.7-27.8-77.8,4.5-55,5.8-68.4,8.8-86.1,4.5-27,9.6-38.1,24.7-56,37.4-43.7,60.1-72.5,121.2-153.7,52-69.4,81.8-109.8,83.6-114.1.5-1.3,5.8-9.6,11.9-18.4,6.1-8.8,11.1-16.7,11.1-17.4s3.3-6.1,7.6-12.1c13.1-19.4,22.7-41.4,22.7-51.5s-1.5-19.9-3.5-32.3c-5-31.6-7.6-60.8-5.3-64.4,3-4.8,7.6-1.3,9.1,7.8h0c.8,4.8,4,17.7,7.3,28.8,3,11.1,6.6,24.7,7.8,30.3,1,5.6,3.3,14.1,4.8,18.9,3.5,12.1,3.3,26-1,35.8-2,4.5-11.4,26.5-20.4,48.7-17.2,40.6-23,54.3-37.1,84.6-4.3,9.1-10.9,23.2-14.6,31.6-20.4,44.9-47.2,97.2-53.8,106-4.3,5.6-34.6,36.9-67.4,69.4l-59.6,59.3-4.5,22.7c-2.5,13.4-4.5,36.6-4.8,56.8l-.5,34.1,15.4,25.2c18.2,29.8,33.1,51.8,56.5,83.1,9.1,12.6,18.9,26,21.7,29.5,17.2,23.7,55.8,73,72.5,93.2,11.1,13.1,24.2,29,29.3,35.1,25.2,30.5,53.8,63.1,76,86.8,6.3,6.6,22.7,19.7,36.6,29,13.9,9.3,25.5,18.9,26,21.5,1.5,8.1-3,6.3-62.4-24.7ZM1167.8,2121.3c-1.8,1.8-7.6-4.8-14.4-17.2-62.9-114.1-112.6-213.1-147.2-293.9-14.4-33.1-14.1-49.2.3-96.2,1.5-4.8,3.8-12.9,4.8-17.7s3-12.4,4.3-16.4c1.5-4.3,4.5-14.4,7.1-22.7,2.3-8.3,5.6-19.2,7.3-24s5.3-15.7,7.6-24c2.5-8.3,5.6-17.9,7.1-21.5,1.3-3.5,3.3-9.8,4.5-13.9,1-4.3,6.1-18.9,11.1-32.8,5-13.9,10.1-28.8,11.4-32.8,1-4.3,4.5-13.9,7.6-21.5,3-7.6,6.3-16.7,7.6-20.2,1.3-3.5,4.5-12.6,7.6-20.2,3-7.6,6.3-17.4,7.3-21.5,1-4.3,3.3-9.8,4.5-12.6,3.3-5.8,15.7-37.9,19.4-50,2.5-8.1,5.6-2.5,10.1,19.4h0c4.8,22.2,4.5,34.3-.8,55.8-8.8,34.3-16.4,69.2-29.3,133.8-12.4,61.8-16.9,85.8-18.9,101-1,6.8-3,19.4-4.5,27.8-3.8,20.4-9.6,59.1-14.1,96.2-4.3,35.8-2.8,44.9,15.1,94.9,6.6,17.7,11.6,31.1,14.9,38.6,1.8,4,4.8,12.1,7.1,17.7,5.3,14.1,19.2,48.7,24,59.3,2,4.8,5,12.1,6.8,16.4,1.8,4,8.3,19.9,14.9,35.3,12.4,29.5,20.4,59.1,16.9,62.6ZM1173.9,824.2c-4,1.8-12.1,5-17.7,7.1-5.6,2-18.9,7.3-29.5,11.9l-19.7,8.3-16.2-4.3c-9.1-2.3-19.7-4-23.5-4-15.4,0-16.4-7.8-3.8-26.5,7.6-11.1,17.2-15.1,54.3-22.5,47-9.6,57.3-11.6,77.5-15.4,11.9-2.3,28.3-5.6,36.6-7.3q21.7-5,41.4,5h0c14.4,7.3,17.9,10.4,17.9,14.9s1.8,10.6,3.8,16.7c2.3,5.8,4,18.9,4.3,28.5.5,16.2-.3,19.2-6.8,29.3-4.3,6.3-8.1,12.4-8.8,13.9-.8,1.3-7.8,12.6-16.2,25-13.4,20.4-14.6,23.7-14.6,35.3.3,7.1,2,19.7,4,28,2,8.3,5.6,24.2,7.8,35.3s5.3,25.2,6.8,31.6c4,16.4,5.6,32.8,2.8,32.8-7.1,0-16.4-17.4-24.7-46.7-2.5-8.3-5.8-19.2-7.6-24-1.8-4.8-5-15.7-7.6-24-2.3-8.3-5.8-19.7-7.8-25.2-7.6-21.7-6.1-26,23-64.4,17.2-23,26.5-37.4,26.5-41.4,0-8.1-8.3-24.2-16.7-32.1-5.3-4.8-9.1-6.1-21-6.1s-19.2,2-25.7,4.8c-6.1,2.5-15.7,6.3-21.2,8.3-5.6,2.3-13.4,5.3-17.7,7.1ZM1665.9,1523.5c-6.8,48.2-15.7,96.2-22.7,121.4-2,7.1-3.5,14.6-3.5,17.2,0,12.4-16.4,31.3-42.9,49.5-4.8,3.3-9.3,6.8-10.1,7.6s-8.3,6.8-16.9,13.4-17.2,13.4-18.9,15.1c-1.8,1.5-14.6,12.1-28.5,23.2-13.9,11.1-26.3,21.5-27.8,23-1.3,1.5-7.6,6.6-13.9,11.4-10.4,7.8-62.4,50.7-83.6,68.9-4.8,4.3-14.4,12.4-21,17.9-6.6,5.3-14.6,12.1-17.7,15.1-3.3,2.8-17.2,14.9-31.1,27-23.7,20.7-35.6,34.8-48.7,58.8-3,5.6-7.8,14.1-10.6,18.9-2.8,4.8-8.1,14.1-11.4,20.7-8.6,16.4-13.4,15.9-20.7-2.5-3.3-7.8-7.3-18.2-9.3-22.7-6.8-15.9-10.6-24.7-14.9-35.8-2.3-6.3-5.6-14.1-6.8-17.7-9.3-23.7-10.4-28.8-7.3-41.7,1.8-7.1,4.5-16.7,6.6-21.5,1.8-4.8,4.8-13.4,7.1-18.9,9.1-24.5,12.6-33.3,15.7-40.4,1.8-4.3,14.4-33.8,27.8-65.6,13.4-32.1,25.5-59.1,26.8-60.3,1.3-1.5,2.3-4,2.3-6.1s2.8-6.8,6.3-11.1c4-4.8,6.3-6.1,6.3-3.5s-1,4.5-2.5,5.3c-1.3.8-2.5,4.5-2.5,8.3s-1.5,11.1-3.5,16.9c-7.8,23.2-21.5,71.2-30.3,106-2,8.3-5.8,23-8.1,32.8-6.1,24.2-6.1,63.1,0,84.6,7.1,25.2,11.9,37.9,14.1,37.9s4.8-5.3,8.1-11.9c6.3-13.4,43.7-52.3,84.1-88.1,13.9-12.1,25.7-23,26.5-23.7,4-4.5,115.4-100,143.9-123.2,6.3-5,13.1-10.9,15.4-13.1,2.3-2,11.9-10.1,21.5-17.7,28.8-23,40.6-35.6,43.4-46.7,7.3-27.3,11.1-108,10.1-207-1-90.6-1.5-99.5-6.1-112.6-9.6-26.3-37.1-62.6-88.4-116.6-13.4-14.1-24.2-27.8-25.2-31.6-.8-3.8-2.8-14.1-4.8-23.2-1.8-9.1-5.3-25.5-7.6-36.6-2.3-11.1-5.6-27-7.6-35.3-1.8-8.3-5.3-24.2-7.6-35.3-2.5-11.1-6.1-26-7.8-33.3-4.8-17.4-4.5-18.4,3-18.4s12.6,6.1,30.8,24.7h0c40.9,41.1,87.1,95.9,132.3,156,39.1,52,41.4,57.1,45.4,103.3,6.1,70.4,3.3,162.1-7.1,237.3ZM1851.7,309.2h0c13.1,2,29,3.8,35.3,3.8s23.2,1.5,37.9,3.8c14.6,2,37.4,4.8,50.5,6.6,13.1,1.5,25.5,4,27.3,5.3,4,3.5,4,19.4-.5,21.2-1.8.8-13.4-.5-25.7-2.5-27.8-4.8-50.7-5.8-54-2.5-1.3,1.3-2.8,27.5-3,60.3l-.8,58.1-8.3.8c-15.4,1.5-15.7,1-15.7-63.9s-.8-59.3-3-61.1c-1.8-1.5-13.4-3.3-26-4.3-12.4-1-30.5-3-40.4-4.8-16.7-2.8-17.7-3.5-18.4-10.1-1.8-15.9,2.8-17.2,44.9-10.6ZM1824.2,923.2c12.4,8.8,19.9,22.5,19.9,35.8s1.5,14.9,3.5,24.5c9.6,46.5,13.4,164.6,6.8,220.6-3.5,30.5-7.6,40.9-36.6,93.4-4.8,9.1-10.6,19.7-12.6,24-2,4-7.3,13.1-11.4,20.2-4.3,6.8-8.8,14.9-10.4,17.7-1.5,2.8-4.8,8.3-7.6,12.6-2.8,4-5.8,9.3-6.8,11.4-6.3,13.4-56,83.3-59.3,83.3s-2-13.1-2-29c0-32.6-1.5-29.8,27-53.5,7.3-6.1,17.2-18.2,23.5-29,11.9-19.7,53.8-101.2,56.3-109.6.8-2.5,3.8-11.6,6.6-19.7,3-8.3,5.3-20.7,5.3-27.8,0-34.1-15.7-154.5-24.2-184.8-2-7.1-3.5-14.4-3.5-16.4-.3-5.8-10.6-16.7-21.5-22-13.4-6.8-33.3-15.7-58.1-25.7-30.8-12.6-40.1-17.2-45.7-22.2-2.5-2.5-11.1-9.6-18.9-15.7-36.6-29.3-51.5-41.4-52.8-42.9-.8-1-15.1-12.1-32.3-24.7-35.1-26-38.9-27.3-69.7-19.2-14.4,3.5-26,6.6-55,13.9-13.9,3.3-38.1,1-42.4-4-2.3-2.5-1.5-3.8,3-5,3.3-1,13.1-5.3,22.2-9.6,19.2-8.8,30.8-13.9,42.4-18.7,4.3-1.8,11.9-4.8,16.4-6.8,4.3-1.8,13.1-5.3,19.4-7.8,6.3-2.3,13.6-5.6,16.4-7.1,13.9-7.3,40.4-7.8,53.5-1h0c3.8,2,22.5,11.4,41.1,20.7,18.7,9.1,40.9,20.7,49.2,25.5,8.3,4.8,17.4,9.8,20.2,11.4,2.8,1.3,7.3,3.8,10.1,5.6,26,15.4,48.2,29,53.8,32.6,3.8,2.5,8.6,5.3,10.6,6.3,4,2,46.2,30.3,63.4,42.9ZM1556.3,359.7c0-52.5.3-54.3,5.8-60.6,3-3.8,9.6-7.6,14.4-8.8,11.4-2.8,55-1,110.6,4.3h0c49.5,4.8,58.6,8.1,67.9,24.7,5.3,9.3,5.8,13.1,5.8,55s-1,53.3-12.6,63.6c-5.3,4.8-8.6,5-47.7,4.3-36.1-.5-90.9-4.8-118.4-9.6-4.5-.8-11.9-5-16.9-10.1l-8.8-8.8v-54ZM1301.4,278.2c0-4,57.3-4,127.5-.3h0c27.8,1.5,53,3.8,56.3,5,6.3,2.5,7.6,11.4,2.3,18.4-3.3,4.3-6.1,4.5-51.2,1.8-26.3-1.8-61.3-3.3-78-3.5l-30.3-.5v35.3l50.5,1.8c27.8,1,60.1,2.8,71.9,3.8l21.5,2,.8,8.3c1.3,11.9-3.3,16.2-14.4,14.6-5-.8-34.8-2.8-66.6-4.3-45.2-2.3-58.3-2-61.1.3-4,3.3-5.3,29-1.8,34.6,2,3.3,66.6,7.6,131.8,9.1l26.3.5,2.5,8.3c4.3,15.4,4.8,15.4-86.8,12.9-84.3-2.3-97.2-3.3-99.7-7.3-1-1.8-2-105.8-1.3-140.9ZM1039.3,297.4c3.3-11.4,14.6-21.2,26-23,12.1-1.8,152-2,156.3-.3h0c5.8,2.3,5.6,20.4-.3,22.2-2.5.8-37.9,1.3-78.8,1.3s-75,.8-77,2.8c-4.3,4.3-3.8,86.3.8,91.9,3,3.8,10.6,4,73.2,3.5l69.7-.8v-35.3l-35.1-.8c-21.5-.5-36.6-1.8-38.6-3.5-2.3-1.8-3.3-6.6-2.8-11.9l.8-9.1,47.5-.8c29.8-.3,49.2.3,52.3,2,4.8,2.5,5,5.6,5,41.7s-.8,39.4-3,40.6c-1.8,1-41.7,1.8-89.1,1.3-95.7-.8-96.7-.8-105.3-17.9-3.5-7.3-4.3-16.7-4.5-51.5,0-26,1.3-46.5,3-52.5ZM769.2,338.3l.8-54,8.8-1.8c17.7-3.8,17.7-3.5,17.7,57.3s1,56.3,2.8,59.6c2.8,5.3,4,5.3,52.5,3.5,65.9-2,85.6-4,90.1-8.3,2.8-3,3.5-14.6,3.5-59.8s.8-57.1,1.8-58.1c1-1,7.1-1.5,13.4-1l11.4.8.8,55.5c1,92.1,1.8,91.4-110.6,93.9-61.3,1.5-64.9,1.3-74.5-3.8-16.9-8.6-19.2-18.7-18.4-83.8ZM739.2,754.1c.8-2,11.4-10.4,23.7-18.4,27.8-18.2,56-39.4,85.1-64.1,31.3-26.3,36.6-32.1,52.3-55.5,9.8-14.9,15.9-21.5,22.5-24.2,8.6-3.8,36.9-5.8,147.7-10.9,59.3-2.8,122.4-2.8,176.7-.3h0c26.5,1.3,65.6,3,87.1,4,39.6,1.5,57.8,4.8,78.3,14.1,20.2,9.1,101.5,50,125,62.6,12.6,6.8,28.5,15.1,35.3,18.9,7.1,3.5,16.7,8.8,21.5,11.9,4.8,2.8,13.9,7.8,20.2,11.4,21.2,11.4,34.1,19.2,40.4,24,10.9,8.3,90.9,88.1,90.9,90.6,0,3.8-12.6,2.5-21-2.3-4.3-2.3-15.1-9.1-24-15.1-8.8-5.8-16.4-10.6-16.9-10.6s-5.3-3-10.6-6.6c-5.3-3.5-11.9-7.6-14.6-8.8-2.8-1.3-8.3-4.5-12.6-7.3-4-2.8-9.3-5.8-11.4-6.8s-11.6-6.6-21.5-12.1c-9.6-5.8-27.8-15.4-40.1-21.5q-22.7-10.9-60.6-12.9c-42.9-2.5-70.4-6.3-79.8-11.1-13.1-7.1-50-23.7-71.9-32.8-12.4-5-27-11.1-32.3-13.4-8.6-3.5-17.2-3.5-85.8-.8-41.9,1.8-90.1,4-107.3,4.5-20.4,1-32.1.5-33.8-1.3-2-2-1-3,3.3-4,14.6-2.8,64.9-9.3,100.7-12.6,21.5-2.3,51.8-5,66.9-6.6,15.4-1.8,45.7-3.8,67.7-5,22-1,40.4-2.5,41.1-3.3.8-.5-3-3.8-8.3-7.1l-9.6-6.1-142.6.5c-111.3.3-152,1.3-184.8,4.5l-42.2,4-36.1,18.4c-19.9,10.1-43.9,22.7-53.8,28-26,14.4-46.5,25.5-60.6,32.8-6.8,3.5-15.9,8.6-20.2,11.1-4,2.5-14.9,8.6-24,13.4-9.1,5-22.2,12.4-29,16.4-7.1,4-14.4,8.1-16.4,9.1-2,1-5.8,3-8.1,4.8-5,3.5-8.3,1.5-6.3-3.8ZM744.7,814.1c31.3-39.1,33.6-41.1,64.4-56,31.1-14.9,41.9-19.9,55-25.2,4.3-1.8,11.9-4.8,16.4-6.8,7.6-3.3,14.1-5.8,38.4-14.9,7.3-2.8,18.7-3.8,40.4-3.5,29.3.5,30.3.8,29.8,5.8h0c-.3,3-7.3,16.7-15.4,30.3-8.1,13.6-15.4,26.8-16.4,28.8s-4,7.1-6.8,11.4c-2.5,4-7.3,12.6-10.6,18.7-6.6,12.6-17.2,22.5-26.8,24.5-3.8.8-10.9,2.8-15.7,4.5-4.8,2-15.1,5.3-22.7,7.6-7.6,2-24,7.3-36.6,11.1-42.7,13.6-52.5,15.4-101,18.2-63.6,3.3-60.1,3.5-57.1-2,1.3-2.5,9.3-7.3,17.9-10.9,18.7-7.3,21.7-10.1,46.7-41.4ZM702.6,920.9c-7.1,1.5-13.6,2.3-14.9,1.5s-2.3-6.8-2.3-13.6c0-15.7,4.3-20.2,18.9-20.2s12.6,1.5,14.9,4h0c9.6,9.3,1,24-16.7,28.3ZM520.3,300.2c.8-1.3,7.8-2.3,15.7-2.3s28.5-1.8,45.9-3.8c17.4-2,41.1-3.8,53-4,11.9-.3,28.3-1.3,36.6-2.3,29-3.5,31.3-3.3,34.3,4h0c1.8,5,1.5,8.1-1.3,12.4-3,4.5-6.8,5.8-23.2,7.1-10.6,1-27,1.8-36.1,1.8-9.1.3-35.8,2.3-59.6,4.5l-42.9,4.5-.8,15.9c-.5,8.8.3,17.2,1.5,18.4,1.5,1.5,15.4,1,36.1-1.5,18.7-2,50-4.5,69.4-5.3,38.1-1.5,38.9-1.3,38.9,10.9-.3,10.4-3.3,11.4-44.7,13.6-22,1-53.5,3.5-70.2,5.3l-30.3,3-.8,16.2c-.5,9.1.5,17.4,2,18.9,3.3,3.3,39.4,2.3,82-2.5,41.9-4.5,78.5-4.8,80-.5.5,1.8.5,6.6-.3,10.9-1.5,7.6-1.8,7.6-21.7,9.1-81,6.1-104.5,7.8-131.3,10.9-16.7,1.8-31.3,2.5-32.3,1.5-2.3-2-2.5-143.1-.3-146.7ZM534.7,946.2c18.4-13.1,24-19.2,54.5-59.1,5.6-7.1,14.4-16.4,19.7-20.4,9.1-7.1,54.3-35.6,77.8-48.7,6.1-3.5,12.6-7.8,14.4-9.6,3.3-3.3,12.1-4.3,12.1-1h0c0,1-12.6,11.4-28,23-31.8,24-34.8,28.5-36.9,57.6-1.5,20.2-6.3,29.5-16.4,31.8-3.3.8-12.1,3.8-19.7,6.8-7.6,3-16.2,6.1-18.9,6.8-6.1,1.8-29,18.7-29,21.5s13.1,2.3,25.5-1.5c27-8.3,33.6-9.1,45.4-5,12.1,4.3,29,3.3,51.5-2.8,7.1-2,21-5.8,31.1-8.6,10.9-3,25-9.3,33.8-15.4,16.9-11.4,17.2-11.4,17.2-6.8s-23.5,26-35.3,30.5c-6.3,2.5-14.6,6.1-18.9,7.8-4,1.8-12.4,5-18.2,7.3-6.1,2.3-15.7,5.8-21.5,8.1-6.1,2.3-14.1,5.6-18.4,7.3-4,1.8-12.6,5-18.9,7.6-6.3,2.3-14.1,5.6-17.7,6.8-3.5,1.3-14.1,5-24,8.3-9.6,3.3-24,8.6-31.6,11.4-7.6,3-16.7,6.1-20.2,6.8-9.1,1.8-18.7,9.6-17.2,13.9,1,2.5,10.6,4.3,33.8,6.8,17.9,1.8,34.3,4.3,36.4,5.3,2,1,18.4,17.2,36.4,35.3,37.4,38.1,37.1,37.4,6.1,42.7-10.1,1.8-27.3,4.8-37.9,6.8-10.9,1.8-29,5.3-40.4,7.3-11.6,2.3-26,5.3-32.3,6.8-6.3,1.5-16.4,3.5-22.7,4.5-23.2,4-28,9.1-32.8,34.1-11.1,56-10.9,55.8-29.8,37.4-16.2-15.7-48.5-58.1-48.5-63.6s6.8-14.6,28.8-39.1c9.6-10.6,19.4-22,21.5-25,8.8-12.4,15.4-37.6,10.9-40.6-2.8-1.5-18.7,16.4-21.5,24-.8,2.3-10.4,10.9-21.2,19.2-31.1,23.7-33.8,24.5-41.9,11.1-11.9-20.4,5.6-39.4,105.5-114.6,21-15.9,46.7-34.8,57.6-42.7ZM265.8,327.2c4.8-1.5,29-4.5,78.8-10.4,77.2-8.8,82.6-8.8,95.9-2.8,3.3,1.5,8.8,6.6,11.9,11.4,5,7.3,5.8,11.9,5.8,31.6s-1,24.7-5.8,33.1c-6.8,12.1-23.2,21.2-38.6,21.2-5.8.3-16.7,1.5-24,2.8-7.6,1.5-26.8,3.8-42.7,5-15.9,1.5-35.8,4-44.2,5.8l-15.1,3-1.3,21.5-1.3,21.2-8.8,2c-4.8,1-10.4,1.3-11.9.8-2.5-.8-3.3-17.7-3.3-73s.3-71.9,4.5-73.2Z"/>
  <path d="M289.1,400.1c2.5,1.5,17.7,0,78.3-7.6,15.9-2,34.3-3.8,40.6-3.8s13.9-1.8,18.4-5.3c6.1-4.8,6.6-6.6,6.6-23.7,0-28,.3-27.8-47.5-24h0c-12.9,1.3-26.5,2.8-30,3.8-3.5.8-18.2,2.5-32.6,3.8-37.1,3.3-36.4,2.8-36.4,31.6s1,24.5,2.5,25.2Z"/>
  <path d="M1638.4,414.8c43.7,3.8,76.7,5.6,87.3,4.5,7.6-.5,9.8-12.1,9.8-49.2s-.5-36.9-5.3-42.9c-4-5.3-7.3-6.6-15.7-6.6s-24.7-1.8-42.2-3.8c-17.4-2-44.2-3.8-59.8-3.8-25.5,0-28.5.5-31.1,4.8-1.3,2.8-2.5,22-2.5,43.9,0,51-4,47.7,59.3,53Z"/>
</svg>